<svg viewBox="0 0 200 200" width="200" height="200" xmlns="http://www.w3.org/2000/svg"><ellipse cx="110" cy="182" rx="40" ry="6" fill="#FF6B4A" opacity="0.18"/><line x1="110" y1="100" x2="100" y2="145" stroke="#FF6B4A" stroke-width="16" stroke-linecap="round"/><line x1="110" y1="100" x2="122" y2="145" stroke="#FF6B4A" stroke-width="16" stroke-linecap="round"/><line x1="100" y1="145" x2="94" y2="178" stroke="#FF6B4A" stroke-width="16" stroke-linecap="round"/><line x1="122" y1="145" x2="128" y2="178" stroke="#FF6B4A" stroke-width="16" stroke-linecap="round"/><circle cx="100" cy="145" r="8" fill="#FF6B4A"/><circle cx="122" cy="145" r="8" fill="#FF6B4A"/><circle cx="94" cy="178" r="6" fill="#FF6B4A"/><circle cx="128" cy="178" r="6" fill="#FF6B4A"/><g transform="rotate(-40.100907546212234 94 81)">
    <rect x="78" y="58.14767407899143" width="32" height="45.704651842017135" rx="16" fill="#FF6B4A"/>
  </g><line x1="72" y1="68" x2="62" y2="90" stroke="#FF6B4A" stroke-width="14" stroke-linecap="round"/><line x1="90" y1="64" x2="100" y2="88" stroke="#FF6B4A" stroke-width="14" stroke-linecap="round"/><line x1="62" y1="90" x2="58" y2="112" stroke="#FF6B4A" stroke-width="14" stroke-linecap="round"/><line x1="100" y1="88" x2="108" y2="110" stroke="#FF6B4A" stroke-width="14" stroke-linecap="round"/><circle cx="62" cy="90" r="6" fill="#FF6B4A"/><circle cx="100" cy="88" r="6" fill="#FF6B4A"/><circle cx="58" cy="112" r="5.5" fill="#FF6B4A"/><circle cx="108" cy="110" r="5.5" fill="#FF6B4A"/><circle cx="72" cy="68" r="8" fill="#FF6B4A"/><circle cx="90" cy="64" r="8" fill="#FF6B4A"/><circle cx="110" cy="100" r="9" fill="#FF6B4A"/><circle cx="68" cy="48" r="16" fill="#FF6B4A"/><!--headband--><clipPath id="hb"><circle cx="68.0" cy="48.0" r="16.0"/></clipPath><rect x="51.0" y="38.08" width="34.0" height="8.0" fill="#5EEAD4" clip-path="url(#hb)"/><path d="M83.0,42.1 Q93.0,30.3 103.0,33.3" stroke="#5EEAD4" stroke-width="5.4" stroke-linecap="round" fill="none"/><path d="M83.0,42.1 Q91.8,47.1 100.6,50.1" stroke="#5EEAD4" stroke-width="5.4" stroke-linecap="round" fill="none"/><circle cx="83.0" cy="42.1" r="4.2" fill="#5EEAD4"/></svg>