<svg viewBox="0 0 200 200" width="200" height="200" xmlns="http://www.w3.org/2000/svg"><ellipse cx="110" cy="146" rx="70" ry="6" fill="#0F766E" opacity="0.18"/><line x1="120" y1="116" x2="145" y2="120" stroke="#0F766E" stroke-width="16" stroke-linecap="round"/><line x1="120" y1="116" x2="150" y2="120" stroke="#0F766E" stroke-width="16" stroke-linecap="round"/><line x1="145" y1="120" x2="168" y2="142" stroke="#0F766E" stroke-width="16" stroke-linecap="round"/><line x1="150" y1="120" x2="175" y2="142" stroke="#0F766E" stroke-width="16" stroke-linecap="round"/><circle cx="145" cy="120" r="8" fill="#0F766E"/><circle cx="150" cy="120" r="8" fill="#0F766E"/><circle cx="168" cy="142" r="6" fill="#0F766E"/><circle cx="175" cy="142" r="6" fill="#0F766E"/><g transform="rotate(-86.30861401354872 89 114)">
    <rect x="76" y="85.42070679670331" width="26" height="57.158586406593365" rx="13" fill="#0F766E"/>
  </g><line x1="64" y1="114" x2="50" y2="128" stroke="#0F766E" stroke-width="14" stroke-linecap="round"/><line x1="64" y1="114" x2="54" y2="128" stroke="#0F766E" stroke-width="14" stroke-linecap="round"/><line x1="50" y1="128" x2="42" y2="142" stroke="#0F766E" stroke-width="14" stroke-linecap="round"/><line x1="54" y1="128" x2="48" y2="142" stroke="#0F766E" stroke-width="14" stroke-linecap="round"/><circle cx="50" cy="128" r="6" fill="#0F766E"/><circle cx="54" cy="128" r="6" fill="#0F766E"/><circle cx="42" cy="142" r="5.5" fill="#0F766E"/><circle cx="48" cy="142" r="5.5" fill="#0F766E"/><circle cx="64" cy="114" r="8" fill="#0F766E"/><circle cx="64" cy="114" r="8" fill="#0F766E"/><circle cx="120" cy="116" r="9" fill="#0F766E"/><circle cx="44" cy="108" r="16" fill="#0F766E"/><!--headband--><clipPath id="hb"><circle cx="44.0" cy="108.0" r="16.0"/></clipPath><rect x="27.0" y="98.08" width="34.0" height="8.0" fill="#FF6F61" clip-path="url(#hb)"/><path d="M59.0,102.1 Q69.0,90.3 79.0,93.3" stroke="#FF6F61" stroke-width="5.4" stroke-linecap="round" fill="none"/><path d="M59.0,102.1 Q67.8,107.1 76.6,110.1" stroke="#FF6F61" stroke-width="5.4" stroke-linecap="round" fill="none"/><circle cx="59.0" cy="102.1" r="4.2" fill="#FF6F61"/></svg>