<svg viewBox="0 0 200 200" width="200" height="200" xmlns="http://www.w3.org/2000/svg"><ellipse cx="110" cy="182" rx="55" ry="6" fill="#FF6B4A" opacity="0.18"/><line x1="100" y1="98" x2="78" y2="140" stroke="#FF6B4A" stroke-width="16" stroke-linecap="round"/><line x1="100" y1="98" x2="132" y2="148" stroke="#FF6B4A" stroke-width="16" stroke-linecap="round"/><line x1="78" y1="140" x2="70" y2="178" stroke="#FF6B4A" stroke-width="16" stroke-linecap="round"/><line x1="132" y1="148" x2="155" y2="178" stroke="#FF6B4A" stroke-width="16" stroke-linecap="round"/><circle cx="78" cy="140" r="8" fill="#FF6B4A"/><circle cx="132" cy="148" r="8" fill="#FF6B4A"/><circle cx="70" cy="178" r="6" fill="#FF6B4A"/><circle cx="155" cy="178" r="6" fill="#FF6B4A"/><g transform="rotate(8.130102354155994 104 70)">
    <rect x="88" y="43.978470452335046" width="32" height="52.0430590953299" rx="16" fill="#FF6B4A"/>
  </g><line x1="92" y1="50" x2="80" y2="78" stroke="#FF6B4A" stroke-width="14" stroke-linecap="round"/><line x1="124" y1="50" x2="138" y2="72" stroke="#FF6B4A" stroke-width="14" stroke-linecap="round"/><line x1="80" y1="78" x2="74" y2="102" stroke="#FF6B4A" stroke-width="14" stroke-linecap="round"/><line x1="138" y1="72" x2="148" y2="92" stroke="#FF6B4A" stroke-width="14" stroke-linecap="round"/><circle cx="80" cy="78" r="6" fill="#FF6B4A"/><circle cx="138" cy="72" r="6" fill="#FF6B4A"/><circle cx="74" cy="102" r="5.5" fill="#FF6B4A"/><circle cx="148" cy="92" r="5.5" fill="#FF6B4A"/><circle cx="92" cy="50" r="8" fill="#FF6B4A"/><circle cx="124" cy="50" r="8" fill="#FF6B4A"/><circle cx="100" cy="98" r="9" fill="#FF6B4A"/><circle cx="108" cy="26" r="16" fill="#FF6B4A"/></svg>